<svg width="102" height="97" viewBox="0 0 102 97" fill="none" xmlns="http://www.w3.org/2000/svg">
<g clip-path="url(#clip0_48_96)">
<path d="M51 88.7959C73.0789 88.7959 90.9774 71.7747 90.9774 50.7781C90.9774 29.7814 73.0789 12.7603 51 12.7603C28.921 12.7603 11.0225 29.7814 11.0225 50.7781C11.0225 71.7747 28.921 88.7959 51 88.7959Z" fill="#FFB44B"/>
<path d="M82.291 50.7781C82.291 67.2142 68.2819 80.5367 51.0008 80.5367C47.0701 80.5367 43.3082 79.8479 39.8432 78.5895C28.0699 74.3164 19.7085 63.4761 19.7085 50.7781C19.7085 34.3444 33.7176 21.0195 51.001 21.0195C55.6419 21.0195 60.046 21.9816 64.0083 23.706C74.7962 28.402 82.291 38.7577 82.291 50.7781Z" fill="#F2F2F2"/>
<path d="M82.2911 50.7785C82.2911 67.2145 68.282 80.5371 51.0009 80.5371C47.0701 80.5371 43.3083 79.8482 39.8433 78.5899L64.0082 23.7065C74.7963 28.4023 82.2911 38.7581 82.2911 50.7785Z" fill="white"/>
<path d="M94.7765 34.0505L84.5148 24.2941C84.5052 24.285 84.4978 24.278 84.4906 24.2689L81.6825 21.6008L68.5884 9.14858C74.3737 3.64685 83.0322 2.54707 89.9668 5.84659V5.84886C91.7004 6.6709 93.3278 7.77314 94.7765 9.14839C102.006 16.0255 102.006 27.1758 94.7765 34.0505Z" fill="#FFCA6C"/>
<path d="M89.9668 5.84667V5.84895C89.9668 5.84895 74.2819 14.5216 84.4906 24.2689L81.6825 21.6009L68.5884 9.14866C74.3737 3.64693 83.0324 2.54696 89.9668 5.84667Z" fill="#FFCA6C"/>
<path d="M7.22505 34.0517C-0.00600643 27.1751 -0.00600643 16.0257 7.22505 9.14914C14.4561 2.27255 26.1802 2.27255 33.4112 9.14914L20.3181 21.6004L7.22505 34.0517Z" fill="#FFCA6C"/>
<path d="M15.5543 9.14917C18.1031 6.72531 21.2109 5.15985 24.4825 4.44467C18.4723 3.13081 11.9068 4.69626 7.22456 9.14917C-0.00649472 16.0258 -0.00649472 27.1751 7.22456 34.0517L12.0698 29.444C8.62189 22.8546 9.77995 14.6405 15.5543 9.14917Z" fill="#FFCA6C"/>
<path d="M24.2149 35.2895C23.3322 34.8424 22.2355 35.1606 21.7653 35.9999C19.235 40.5176 17.8975 45.6283 17.8975 50.7788C17.8975 68.1371 32.7471 82.2588 51.0001 82.2588C69.2532 82.2588 84.1028 68.1371 84.1028 50.7788C84.1028 33.4209 69.2532 19.2988 51.0001 19.2988C41.7814 19.2988 33.2224 22.8147 26.8994 29.1989C26.2137 29.8912 26.2481 30.9813 26.9759 31.6334C27.704 32.2853 28.8501 32.2531 29.536 31.5606C34.751 26.2955 41.6743 23.2228 49.1894 22.7967V26.1942C49.1894 27.1452 50 27.9163 51.0003 27.9163C52.0006 27.9163 52.8112 27.1452 52.8112 26.1942V22.7978C67.6273 23.6561 79.5213 34.9672 80.424 49.0571H76.8526C75.8523 49.0571 75.0417 49.8281 75.0417 50.7792C75.0417 51.7302 75.8523 52.5013 76.8526 52.5013H80.424C79.5215 66.5914 67.6275 77.9023 52.8112 78.7605V75.3642C52.8112 74.4131 52.0006 73.6421 51.0003 73.6421C50 73.6421 49.1894 74.4131 49.1894 75.3642V78.7605C34.3733 77.9025 22.4793 66.5914 21.5766 52.5013H25.1478C26.1481 52.5013 26.9587 51.7302 26.9587 50.7792C26.9587 49.8281 26.1481 49.0571 25.1478 49.0571H21.5752C21.8342 45.059 22.9919 41.1366 24.962 37.6194C25.4321 36.7793 25.0976 35.7364 24.2149 35.2895Z" fill="black"/>
<path d="M96.056 7.93152C92.2166 4.28037 87.1118 2.26951 81.6825 2.26951C76.253 2.26951 71.1482 4.28037 67.3086 7.93152C66.6014 8.60408 66.6014 9.69458 67.3086 10.3669L77.4351 19.9971C69.9925 14.1949 60.7513 11.0397 51 11.0397C41.249 11.0397 32.0082 14.1947 24.5658 19.9965L34.6917 10.3669C35.0311 10.0441 35.222 9.60591 35.222 9.14933C35.222 8.69256 35.0313 8.25454 34.6917 7.93171C29.909 3.38369 23.085 1.39935 16.4368 2.62341C15.4551 2.80415 14.813 3.70766 15.003 4.64147C15.1931 5.5751 16.1428 6.18514 17.1251 6.00497C21.9909 5.10923 26.9721 6.30374 30.7804 9.21526L7.29346 31.5505C2.02013 25.3179 2.42435 16.1494 8.50531 10.3668C9.41236 9.50418 10.4186 8.74314 11.496 8.10487C12.3449 7.60206 12.6042 6.53999 12.0755 5.73254C11.5468 4.92527 10.4298 4.67879 9.5809 5.18142C8.26984 5.95817 7.04643 6.88328 5.94415 7.93133C-1.98138 15.4684 -1.98138 27.7323 5.94415 35.2693C6.29797 35.6054 6.76155 35.7738 7.22473 35.7738C7.68812 35.7738 8.1517 35.6058 8.50531 35.2693L18.6519 25.62C5.22059 41.2143 6.15313 64.3295 21.4516 78.8783C22.5608 79.9331 23.7229 80.9187 24.9295 81.8381L20.7394 92.4014C20.3863 93.2913 20.8589 94.2848 21.7944 94.6205C22.005 94.6961 22.2212 94.7319 22.4333 94.7319C23.1649 94.7319 23.8544 94.307 24.1281 93.6172L27.9638 83.9473C34.7391 88.2215 42.6836 90.5177 51 90.5177C59.3164 90.5177 67.261 88.2215 74.0361 83.9473L77.8716 93.6172C78.1454 94.307 78.8343 94.7319 79.5664 94.7319C79.779 94.7319 79.9947 94.6961 80.2053 94.6207C81.141 94.285 81.6134 93.2915 81.2603 92.4014L77.0702 81.8381C78.2766 80.9187 79.4389 79.9331 80.5477 78.8783C82.5519 76.9723 84.353 74.8753 85.901 72.6454C86.452 71.8516 86.2221 70.7835 85.3876 70.2594C84.5526 69.7352 83.4298 69.9539 82.8784 70.7477C81.4645 72.7843 79.8184 74.7002 77.9864 76.4426C70.778 83.2976 61.1938 87.0731 50.9994 87.0731C40.8049 87.0731 31.2207 83.2976 24.0119 76.4426C9.13106 62.2912 9.13106 39.2654 24.0119 25.114C31.2211 18.2594 40.8053 14.4842 50.9998 14.4842C61.1942 14.4842 70.7782 18.2596 77.9868 25.1146C83.5107 30.3676 87.164 36.9929 88.5512 44.2746C89.9073 51.3918 89.0291 58.6461 86.0109 65.2531C85.6125 66.1254 86.0332 67.1399 86.9504 67.5188C87.8683 67.8979 88.9347 67.4974 89.3329 66.6253C92.6372 59.3914 93.5992 51.4501 92.115 43.6604C90.845 36.9931 87.8398 30.8298 83.3547 25.6267L93.4946 35.2695C93.8343 35.5925 94.2949 35.774 94.7752 35.774C95.2557 35.774 95.7159 35.5927 96.0558 35.2695C103.981 27.7323 103.981 15.4684 96.056 7.93152ZM94.7065 31.5505L71.2189 9.2145C77.773 4.19986 87.4138 4.58388 93.4948 10.3668C99.5756 16.1496 99.9796 25.3179 94.7065 31.5505Z" fill="black"/>
<path d="M51.0004 52.5009C52.0007 52.5009 52.8113 51.7298 52.8113 50.7787V36.8706C52.8113 35.9195 52.0007 35.1484 51.0004 35.1484C50.0001 35.1484 49.1895 35.9195 49.1895 36.8706V49.0566H42.3182C41.3179 49.0566 40.5073 49.8277 40.5073 50.7787C40.5073 51.7298 41.3179 52.5009 42.3182 52.5009H51.0004V52.5009Z" fill="black"/>
</g>
<defs>
<clipPath id="clip0_48_96">
<rect width="102" height="97" fill="white"/>
</clipPath>
</defs>
</svg>
