<svg width="154" height="192" viewBox="0 0 154 192" fill="none" xmlns="http://www.w3.org/2000/svg">
<rect width="152.262" height="3.16371" rx="1.58185" transform="matrix(1 0 0.0180661 0.999837 0.68103 188.837)" fill="#804431"/>
<rect width="152" height="20.0011" transform="matrix(1 0 0.00276325 -0.999945 0.944702 189)" fill="#FFE3A7"/>
<path d="M6.46228 170.528L148.308 170.528L148.324 171.411L6.47855 171.411L6.46228 170.528Z" fill="#E5BE8C"/>
<path d="M6.5238 173.875L148.369 173.875L148.386 174.758L6.54007 174.758L6.5238 173.875Z" fill="#E5BE8C"/>
<path d="M6.58557 177.221L148.431 177.221L148.447 178.104L6.60184 178.104L6.58557 177.221Z" fill="#E5BE8C"/>
<path d="M6.64648 180.566L148.492 180.566L148.508 181.45L6.66275 181.45L6.64648 180.566Z" fill="#E5BE8C"/>
<path d="M6.70886 183.912L148.554 183.912L148.571 184.795L6.72513 184.795L6.70886 183.912Z" fill="#E5BE8C"/>
<path d="M14.8002 168H6.66228L6.78274 181.578L10.8212 176.453L14.9206 181.578L14.8002 168Z" fill="#FFC855"/>
<rect x="0.00012207" width="153" height="170" fill="white"/>
<rect width="2.99672" height="23.4429" transform="matrix(1 0 0.0122369 0.999925 0.205444 168)" fill="#804431"/>
</svg>
