<svg width="203" height="229" viewBox="0 0 203 229" fill="none" xmlns="http://www.w3.org/2000/svg">
<path d="M175.379 215H18V228.862H175.379V215Z" fill="#804431"/>
<path d="M27.8622 111H11V228.828H27.8622V111Z" fill="#804431"/>
<path d="M190.862 111H174V228.828H190.862V111Z" fill="#804431"/>
<path d="M171.532 202H28.7574C26.6825 202 25 194.164 25 184.5V166.999C25 147.669 28.3641 132 32.5144 132H167.775C171.925 132 175.289 147.669 175.289 166.999V184.5C175.289 194.164 173.607 202 171.532 202Z" fill="#52291F"/>
<path d="M191.103 110.896H11.2413C5.03263 110.896 2.01367e-08 104.69 2.01367e-08 97.0343V41.5866C-0.000636699 18.6184 15.0985 0 33.7238 0H168.62C187.246 0 202.345 18.6184 202.345 41.5866V97.0351C202.345 104.69 197.312 110.896 191.103 110.896Z" fill="#804431"/>
<path d="M18.621 86.3798C21.7253 86.3798 24.2419 83.2765 24.2419 79.4485C24.2419 75.6204 21.7253 72.5171 18.621 72.5171C15.5166 72.5171 13 75.6204 13 79.4485C13 83.2765 15.5166 86.3798 18.621 86.3798Z" fill="#895849"/>
<path d="M18.621 37.8627C21.7253 37.8627 24.2419 34.7594 24.2419 30.9314C24.2419 27.1033 21.7253 24 18.621 24C15.5166 24 13 27.1033 13 30.9314C13 34.7594 15.5166 37.8627 18.621 37.8627Z" fill="#895849"/>
<path d="M181.621 86.3798C184.725 86.3798 187.242 83.2765 187.242 79.4485C187.242 75.6204 184.725 72.5171 181.621 72.5171C178.517 72.5171 176 75.6204 176 79.4485C176 83.2765 178.517 86.3798 181.621 86.3798Z" fill="#895849"/>
<path d="M181.621 37.8627C184.725 37.8627 187.242 34.7594 187.242 30.9314C187.242 27.1033 184.725 24 181.621 24C178.517 24 176 27.1033 176 30.9314C176 34.7594 178.517 37.8627 181.621 37.8627Z" fill="#895849"/>
</svg>
