<svg width="60" height="57" viewBox="0 0 60 57" fill="none" xmlns="http://www.w3.org/2000/svg">
<path d="M29.7848 1.81348C14.4145 1.81348 1.90991 13.6884 1.90991 28.2847C1.90991 42.8839 14.4145 54.7619 29.7848 54.7619C45.1582 54.7619 57.666 42.8839 57.666 28.2847C57.666 13.6884 45.1588 1.81348 29.7848 1.81348ZM29.7848 49.3725C17.5437 49.3725 7.58573 39.9129 7.58573 28.2847C7.58573 16.6606 17.5443 7.20409 29.7848 7.20409C42.0283 7.20409 51.9901 16.6612 51.9901 28.2847C51.9901 39.9123 42.029 49.3725 29.7848 49.3725Z" fill="#FFB44B"/>
<path d="M29.7848 0C13.3616 0 0 12.6887 0 28.285C0 43.8849 13.3616 56.576 29.7848 56.576C46.2119 56.576 59.576 43.8849 59.576 28.285C59.576 12.6887 46.2119 0 29.7848 0ZM29.7848 54.7622C14.4146 54.7622 1.90998 42.8842 1.90998 28.285C1.90998 13.6887 14.4146 1.8138 29.7848 1.8138C45.1582 1.8138 57.666 13.6887 57.666 28.2844C57.666 42.8842 45.1589 54.7622 29.7848 54.7622Z" fill="black"/>
<path d="M32.8001 32.6016C32.8001 32.3501 32.7383 32.2558 32.6454 32.1736C32.6256 32.156 32.5843 32.124 32.5098 32.0811V33.0369C32.8001 32.8761 32.8001 32.6935 32.8001 32.6016Z" fill="white"/>
<path d="M27.207 22.9827V23.0456C27.207 23.2572 27.2764 23.3352 27.342 23.3926C27.3579 23.4059 27.4108 23.447 27.5317 23.5069V22.5371C27.4547 22.5728 27.412 22.6024 27.391 22.6199C27.2395 22.7469 27.207 22.8569 27.207 22.9827Z" fill="white"/>
<path d="M29.7849 9.01807C18.5975 9.01807 9.49585 17.6614 9.49585 28.2848C9.49585 38.9125 18.5975 47.5589 29.7849 47.5589C40.9755 47.5589 50.0803 38.9125 50.0803 28.2848C50.0803 17.6608 40.9755 9.01807 29.7849 9.01807ZM40.13 32.1996C40.13 33.2776 40.0497 34.2722 39.6232 35.1543C39.1883 36.0334 38.6446 36.8012 37.8686 37.4439C37.1014 38.0757 36.1394 38.583 35.0819 38.9524C34.2886 39.2281 33.7634 39.4318 32.4901 39.5606V42.5141H27.3968V39.4929C26.1235 39.2946 24.5707 38.9669 23.2572 38.5171C21.6605 37.9723 20.1618 37.2396 18.8452 36.3399L18.0812 35.8248L22.1074 30.1706L22.9013 30.7093C23.8799 31.3707 24.8024 31.9076 25.7523 32.306C26.3056 32.5376 26.7601 32.7292 27.3968 32.8798V30.9729C26.1235 30.7123 25.4416 30.4263 24.5834 30.1035C23.5004 29.7002 22.5977 29.1929 21.8496 28.598C21.0786 27.9898 20.6202 27.2558 20.2185 26.4203C19.8205 25.5913 19.7562 24.6137 19.7562 23.5127V23.4505C19.7562 22.4069 19.8365 21.4335 20.2395 20.5568C20.6361 19.6802 21.1696 18.8954 21.9464 18.2291C22.7002 17.5852 23.6106 17.0598 24.691 16.6681C25.5104 16.3706 26.1228 16.159 27.3962 16.0381V14.0973H32.4894V16.1614C33.7627 16.3331 34.7687 16.5973 35.7313 16.9486C36.9499 17.3966 38.1442 17.9673 39.1775 18.6445L39.9485 19.1324L36.2578 24.8701L35.4327 24.3138C34.8011 23.8918 34.1135 23.5333 33.4285 23.2497C33.1165 23.1216 33.1261 23.0091 32.4894 22.9093V24.6137C33.7627 24.8749 34.5286 25.1724 35.3665 25.5025C36.4342 25.9263 37.3548 26.439 38.0812 27.0273C38.8516 27.6494 39.3068 28.3967 39.6888 29.2468C40.0669 30.0944 40.1287 31.0654 40.1287 32.1331V32.1996H40.13Z" fill="white"/>
<path d="M29.785 7.2041C17.5439 7.2041 7.58594 16.6612 7.58594 28.2847C7.58594 39.9123 17.5446 49.3725 29.785 49.3725C42.0286 49.3725 51.9904 39.9129 51.9904 28.2847C51.9904 16.6606 42.0292 7.2041 29.785 7.2041ZM29.785 47.5587C18.5976 47.5587 9.49591 38.9123 9.49591 28.2847C9.49591 17.6613 18.5976 9.0179 29.785 9.0179C40.9755 9.0179 50.0804 17.6613 50.0804 28.2847C50.0804 38.9123 40.9755 47.5587 29.785 47.5587Z" fill="black"/>
<path d="M36.8557 28.4088C36.2788 27.9421 35.539 27.5273 34.6566 27.1772C33.7271 26.8115 32.5958 26.485 31.3428 26.2087L30.5801 26.0454V20.5629L31.7738 20.8205C32.5569 20.9922 33.3827 21.2497 34.204 21.5859C34.7063 21.7945 35.2042 22.0345 35.6817 22.3054L37.3841 19.6736C36.6831 19.2757 35.9363 18.9305 35.1507 18.6409C34.1015 18.2582 32.8129 17.9928 31.5325 17.8525L30.5814 17.76V15.9111H29.3081V17.7056L28.4072 17.7642C27.2574 17.8404 26.2209 18.0417 25.3379 18.3628C24.4771 18.6748 23.7456 19.0829 23.1688 19.5768C22.5989 20.0653 22.2857 20.6373 21.996 21.2776C21.6968 21.9293 21.6682 22.6591 21.6682 23.4511V23.5134C21.6682 24.3526 21.6879 25.0775 21.9718 25.6682C22.2564 26.2613 22.604 26.7643 23.1637 27.2057C23.7558 27.6766 24.4765 28.0835 25.3697 28.4161C26.3215 28.7746 27.3745 29.0981 28.6396 29.3798L29.3081 29.5436V35.0927L28.2417 34.9064C27.1281 34.7214 26.0579 34.4052 25.0087 33.9663C24.2052 33.6295 23.403 33.2081 22.5875 32.7087L20.7036 35.3605C21.6732 35.9403 22.7339 36.427 23.8589 36.8103C25.3143 37.3097 26.8334 37.6308 28.411 37.794L29.3081 37.8823V40.7009H30.5814V37.9306L31.5211 37.8545C32.5843 37.762 33.6087 37.5582 34.4956 37.2505C35.3321 36.9578 36.0751 36.5618 36.6659 36.0763C37.2389 35.6017 37.5655 35.034 37.8832 34.3919C38.1901 33.7559 38.2213 33.0165 38.2213 32.2009V32.135C38.2213 31.3115 38.2162 30.5787 37.9392 29.9578C37.6738 29.3695 37.3994 28.8477 36.8557 28.4088ZM29.3068 25.9777L28.1691 25.6663C27.1014 25.3913 26.5367 25.0944 26.1159 24.7316C25.6186 24.2975 25.4862 23.7159 25.4862 23.0448V22.9819C25.4862 22.3078 25.681 21.7098 26.2298 21.2522C26.736 20.8362 27.3631 20.5962 28.3875 20.5158L29.3061 20.4347V25.9777H29.3068ZM31.6446 35.0987L30.5807 35.2033V29.563L31.8057 29.8901C32.8339 30.167 33.5164 30.4711 33.9417 30.8466C34.4414 31.2891 34.7025 31.875 34.7025 32.5425C34.7025 33.4215 34.3026 34.8351 31.6446 35.0987Z" fill="#FFB44B"/>
<path d="M38.0939 27.0281C37.3668 26.4392 36.4348 25.9271 35.3671 25.5033C34.5292 25.1732 33.7633 24.8757 32.49 24.6145V22.9102C33.1267 23.0099 33.1203 23.123 33.4323 23.2506C34.1167 23.5341 34.796 23.8927 35.4282 24.3147L36.266 24.8709L39.9733 19.1332L39.2303 18.6453C38.197 17.9682 36.9505 17.398 35.7319 16.9494C34.7686 16.5982 33.764 16.334 32.4907 16.1622V14.0981H27.3974V16.0389C26.1241 16.1598 25.4804 16.3714 24.661 16.6689C23.5813 17.0607 22.6454 17.5861 21.8916 18.23C21.1148 18.8962 20.6405 19.6804 20.2439 20.5577C19.8409 21.4344 19.7575 22.4084 19.7575 23.4513V23.5136C19.7575 24.6139 19.8352 25.5922 20.2331 26.4211C20.6348 27.2566 21.1683 27.9906 21.9393 28.5989C22.6874 29.1938 23.5322 29.701 24.6152 30.1043C25.4734 30.4272 26.1241 30.7137 27.3974 30.9737V32.8806C26.7607 32.7301 26.3049 32.5384 25.7516 32.3069C24.8017 31.909 23.8512 31.3716 22.8726 30.7101L22.0896 30.1714L18.064 35.8256L18.821 36.3408C20.1369 37.2398 21.6598 37.9726 23.2559 38.5179C24.5693 38.9677 26.1241 39.2954 27.3974 39.4937V42.5149H32.4907V39.5615C33.764 39.4327 34.323 39.2289 35.1162 38.9532C36.1731 38.5838 37.1332 38.0766 37.9003 37.4448C38.6764 36.8021 39.1711 36.0342 39.6053 35.1551C40.0319 34.273 40.1306 33.2785 40.1306 32.2005V32.1346C40.1306 31.0662 40.0745 30.0958 39.6964 29.2482C39.3137 28.3969 38.8643 27.6502 38.0939 27.0281ZM38.22 32.1999C38.22 33.0155 38.1977 33.7549 37.8908 34.3909C37.5731 35.0336 37.1879 35.6007 36.6149 36.0753C36.0241 36.5614 35.3333 36.9568 34.4961 37.2495C33.6093 37.5572 32.5658 37.761 31.5026 37.8535L30.58 37.9296V40.6999H29.3067V37.8813L28.4116 37.793C26.8333 37.6298 25.3384 37.3087 23.883 36.8093C22.7574 36.4254 21.6897 35.9393 20.7201 35.3595L22.6053 32.7077C23.4208 33.2071 24.2338 33.6285 25.0373 33.9653C26.0865 34.4042 27.1287 34.7204 28.2422 34.9054L29.3074 35.0917V29.5426L28.6236 29.3788C27.3592 29.097 26.2635 28.7736 25.3117 28.4151C24.4185 28.0825 23.6799 27.6756 23.0878 27.2047C22.5282 26.7639 22.2494 26.2603 21.9648 25.6672C21.6808 25.0759 21.6675 24.3509 21.6675 23.5124V23.4501C21.6675 22.6581 21.6942 21.9283 21.9934 21.2766C22.2831 20.6363 22.6568 20.0643 23.2266 19.5758C23.8034 19.0825 24.5012 18.6738 25.362 18.3618C26.2457 18.0407 27.2726 17.8394 28.4224 17.7632L29.308 17.7046V15.9101H30.5813V17.759L31.5338 17.8515C32.8141 17.9912 34.0498 18.2572 35.0991 18.6399C35.8847 18.9295 36.6601 19.2747 37.3611 19.6726L35.6752 22.3044C35.1977 22.0335 34.7126 21.7929 34.2103 21.5849C33.389 21.2487 32.555 20.9918 31.7719 20.8195L30.582 20.5619V26.0444L31.3447 26.2077C32.5976 26.484 33.7169 26.8098 34.6464 27.1762C35.5288 27.5263 36.2743 27.9411 36.8511 28.4078C37.3948 28.8473 37.6724 29.3685 37.9366 29.9562C38.2136 30.5765 38.2212 31.3093 38.2212 32.1333V32.1999H38.22Z" fill="black"/>
<path d="M31.8055 29.8901L30.5806 29.563V35.2033L31.6444 35.0987C34.3031 34.8345 34.7048 33.4215 34.7048 32.5419C34.7048 31.8744 34.4387 31.2891 33.9389 30.8459C33.5137 30.4711 32.8337 30.167 31.8055 29.8901ZM32.5096 32.0811C32.5841 32.1241 32.6255 32.1561 32.6453 32.1736C32.7382 32.2559 32.8 32.3502 32.8 32.6017C32.8 32.693 32.8 32.8762 32.5096 33.037V32.0811Z" fill="black"/>
<path d="M26.2309 21.2525C25.6821 21.7102 25.4873 22.3081 25.4873 22.9822V23.0451C25.4873 23.7162 25.6528 24.2978 26.1507 24.7319C26.5715 25.0947 27.1503 25.3916 28.2173 25.6667L29.3073 25.978V20.4351L28.3886 20.5161C27.3635 20.5965 26.7371 20.8359 26.2309 21.2525ZM27.5316 23.5064C27.4113 23.446 27.3584 23.4055 27.3419 23.3922C27.2763 23.3347 27.2069 23.2561 27.2069 23.0451V22.9822C27.2069 22.8565 27.2394 22.7458 27.3909 22.6195C27.4113 22.6025 27.4546 22.5723 27.5316 22.5366V23.5064V23.5064Z" fill="black"/>
</svg>
