<svg width="23" height="22" viewBox="0 0 23 22" fill="none" xmlns="http://www.w3.org/2000/svg">
<g clip-path="url(#clip0_48_108)">
<path d="M1.12974 13.4578C0.469448 14.0894 0.469448 15.1133 1.12974 15.7448L6.53888 20.9188C7.19909 21.5503 8.26962 21.5503 8.92983 20.9188L12.0379 17.9459L4.23771 10.4849L1.12974 13.4578Z" fill="#28D2E4"/>
<path d="M14.0702 1.07964L4.23779 10.4844L12.038 17.9455L21.8702 8.5406C22.5305 7.9091 22.5305 6.88511 21.8702 6.2536L16.4611 1.07964C15.8009 0.448061 14.7304 0.448061 14.0702 1.07964Z" fill="#FFDB77"/>
<path d="M22.3186 5.82522L16.9094 0.651259C16.003 -0.215784 14.5281 -0.215784 13.6218 0.651259C13.5151 0.753302 0.996821 12.7273 0.681426 13.029C-0.227057 13.8979 -0.227226 15.3046 0.681426 16.1736L6.09065 21.3477C6.99905 22.2166 8.46968 22.2168 9.37825 21.3477C9.45864 21.2708 22.0858 9.19264 22.3187 8.96987C23.2271 8.10097 23.2272 6.69428 22.3186 5.82522ZM8.4816 20.49C8.06865 20.885 7.40025 20.885 6.98721 20.49L1.57799 15.316C1.16504 14.921 1.16496 14.2816 1.57799 13.8865L4.23776 11.3424L11.1414 17.9459L8.4816 20.49ZM21.422 8.11229L12.0379 17.0883L5.1344 10.4849L14.5184 1.50884C14.9313 1.11385 15.5998 1.11385 16.0128 1.50884L21.422 6.68288C21.835 7.07787 21.835 7.71722 21.422 8.11229Z" fill="#22313F"/>
</g>
<defs>
<clipPath id="clip0_48_108">
<rect width="23" height="22" fill="white"/>
</clipPath>
</defs>
</svg>
