<svg width="1752" height="331" viewBox="0 0 1752 331" fill="none" xmlns="http://www.w3.org/2000/svg">
<path d="M1621.3 180.619L1714.52 269.463H1426.52V61.5366H1716.38L1620.92 159.28L1610.31 170.143L1621.3 180.619Z" fill="white" stroke="#31805A" stroke-width="30"/>
<path d="M1433.89 71.4434H1695.76L1598.69 169.432L1692.73 260.212H1433.89V71.4434Z" fill="#9CAC70"/>
<path d="M130.697 150.381L37.4802 61.5367L325.482 61.5367V269.463L35.6176 269.463L131.08 171.72L141.689 160.857L130.697 150.381Z" fill="white" stroke="#31805A" stroke-width="30"/>
<path d="M318.105 259.557L56.2429 259.557L153.307 161.568L59.2667 70.7883L318.105 70.7883V259.557Z" fill="#9CAC70"/>
<rect x="246.625" y="15" width="1241.21" height="301" rx="15" fill="white" stroke="#31805A" stroke-width="30"/>
<rect x="253.396" y="23.5962" width="1227.07" height="283.152" fill="#CFE78C"/>
<path d="M418.825 143.81C419.888 143.81 420.807 144.197 421.58 144.97C422.353 145.743 422.74 146.662 422.74 147.725V163.095C422.74 177.788 417.713 188.712 407.66 195.865C397.703 202.922 384.508 206.45 368.075 206.45C351.642 206.45 338.398 202.922 328.345 195.865C318.388 188.712 313.41 177.692 313.41 162.805V145.695C313.41 135.835 315.827 127.667 320.66 121.19C325.493 114.617 332.018 109.783 340.235 106.69C348.452 103.597 357.732 102.05 368.075 102.05C380.448 102.05 390.647 104.08 398.67 108.14C406.693 112.2 412.493 116.792 416.07 121.915C419.743 127.038 421.58 131.195 421.58 134.385C421.58 135.255 421.242 136.028 420.565 136.705C419.985 137.285 419.26 137.575 418.39 137.575H385.62C383.687 137.575 382.285 137.043 381.415 135.98C378.418 132.21 373.972 130.325 368.075 130.325C363.628 130.325 359.907 131.34 356.91 133.37C354.01 135.4 352.56 138.01 352.56 141.2V165.85C352.56 169.717 354.01 172.762 356.91 174.985C359.81 177.112 363.532 178.175 368.075 178.175C374.068 178.175 378.467 177.16 381.27 175.13C384.17 173.003 385.668 170.538 385.765 167.735H376.775C375.712 167.735 374.793 167.348 374.02 166.575C373.247 165.802 372.86 164.883 372.86 163.82V147.725C372.86 146.662 373.247 145.743 374.02 144.97C374.793 144.197 375.712 143.81 376.775 143.81H418.825ZM468.938 200.07C467.682 203.357 465.507 205 462.413 205H435.008C434.138 205 433.365 204.71 432.688 204.13C432.108 203.453 431.818 202.68 431.818 201.81L431.963 200.94L463.573 108.285C463.96 107.028 464.685 105.917 465.748 104.95C466.812 103.983 468.262 103.5 470.098 103.5H510.408C512.245 103.5 513.695 103.983 514.758 104.95C515.822 105.917 516.547 107.028 516.933 108.285L548.543 200.94L548.688 201.81C548.688 202.68 548.35 203.453 547.673 204.13C547.093 204.71 546.368 205 545.498 205H518.093C515 205 512.825 203.357 511.568 200.07L507.943 189.92H472.563L468.938 200.07ZM490.253 131.485L479.958 161.645H500.548L490.253 131.485ZM632.007 107.415C633.457 104.805 635.535 103.5 638.242 103.5H664.777C665.84 103.5 666.758 103.887 667.532 104.66C668.305 105.433 668.692 106.352 668.692 107.415V201.085C668.692 202.148 668.305 203.067 667.532 203.84C666.758 204.613 665.84 205 664.777 205H638.532C637.468 205 636.55 204.613 635.777 203.84C635.003 203.067 634.617 202.148 634.617 201.085V156.135L624.032 177.015C623.742 177.692 623.065 178.465 622.002 179.335C620.938 180.205 619.585 180.64 617.942 180.64H608.082C606.438 180.64 605.085 180.205 604.022 179.335C602.958 178.465 602.282 177.692 601.992 177.015L591.407 156.135V201.085C591.407 202.148 591.02 203.067 590.247 203.84C589.473 204.613 588.555 205 587.492 205H561.247C560.183 205 559.265 204.613 558.492 203.84C557.718 203.067 557.332 202.148 557.332 201.085V107.415C557.332 106.352 557.718 105.433 558.492 104.66C559.265 103.887 560.183 103.5 561.247 103.5H587.782C590.488 103.5 592.567 104.805 594.017 107.415L613.012 142.215L632.007 107.415ZM783.185 176.725C784.248 176.725 785.167 177.112 785.94 177.885C786.713 178.658 787.1 179.577 787.1 180.64V201.085C787.1 202.148 786.713 203.067 785.94 203.84C785.167 204.613 784.248 205 783.185 205H691.545C690.482 205 689.563 204.613 688.79 203.84C688.017 203.067 687.63 202.148 687.63 201.085V107.415C687.63 106.352 688.017 105.433 688.79 104.66C689.563 103.887 690.482 103.5 691.545 103.5H781.735C782.798 103.5 783.717 103.887 784.49 104.66C785.263 105.433 785.65 106.352 785.65 107.415V127.86C785.65 128.923 785.263 129.842 784.49 130.615C783.717 131.388 782.798 131.775 781.735 131.775H725.33V140.91H773.76C774.823 140.91 775.742 141.297 776.515 142.07C777.288 142.843 777.675 143.762 777.675 144.825V163.675C777.675 164.738 777.288 165.657 776.515 166.43C775.742 167.203 774.823 167.59 773.76 167.59H725.33V176.725H783.185ZM1036.53 163.095C1036.53 177.885 1031.6 188.808 1021.74 195.865C1011.98 202.922 998.928 206.45 982.592 206.45C966.255 206.45 953.157 202.922 943.297 195.865C933.533 188.808 928.652 177.788 928.652 162.805V145.695C928.652 135.835 930.972 127.667 935.612 121.19C940.348 114.617 946.777 109.783 954.897 106.69C963.017 103.597 972.248 102.05 982.592 102.05C992.935 102.05 1002.12 103.597 1010.14 106.69C1018.26 109.783 1024.69 114.568 1029.43 121.045C1034.16 127.522 1036.53 135.642 1036.53 145.405V163.095ZM967.802 165.85C967.802 169.813 969.107 172.858 971.717 174.985C974.423 177.112 978.048 178.175 982.592 178.175C987.135 178.175 990.712 177.112 993.322 174.985C996.028 172.762 997.382 169.668 997.382 165.705V142.795C997.382 138.832 996.028 135.787 993.322 133.66C990.712 131.437 987.135 130.325 982.592 130.325C978.048 130.325 974.423 131.388 971.717 133.515C969.107 135.642 967.802 138.687 967.802 142.65V165.85ZM1159.58 103.5C1160.45 103.5 1161.18 103.838 1161.76 104.515C1162.43 105.095 1162.77 105.82 1162.77 106.69L1162.63 107.705L1129.28 200.215C1128.79 201.568 1128.02 202.728 1126.96 203.695C1125.89 204.565 1124.49 205 1122.75 205H1088.97C1087.23 205 1085.82 204.565 1084.76 203.695C1083.7 202.728 1082.97 201.713 1082.59 200.65L1048.95 107.705L1048.8 106.69C1048.8 105.82 1049.09 105.095 1049.67 104.515C1050.35 103.838 1051.12 103.5 1051.99 103.5H1082.59C1084.33 103.5 1085.73 104.032 1086.79 105.095C1087.95 106.062 1088.72 107.125 1089.11 108.285L1105.79 163.82L1122.46 108.285C1122.85 107.028 1123.57 105.917 1124.64 104.95C1125.7 103.983 1127.15 103.5 1128.99 103.5H1159.58ZM1275.96 176.725C1277.02 176.725 1277.94 177.112 1278.71 177.885C1279.49 178.658 1279.87 179.577 1279.87 180.64V201.085C1279.87 202.148 1279.49 203.067 1278.71 203.84C1277.94 204.613 1277.02 205 1275.96 205H1184.32C1183.26 205 1182.34 204.613 1181.56 203.84C1180.79 203.067 1180.4 202.148 1180.4 201.085V107.415C1180.4 106.352 1180.79 105.433 1181.56 104.66C1182.34 103.887 1183.26 103.5 1184.32 103.5H1274.51C1275.57 103.5 1276.49 103.887 1277.26 104.66C1278.04 105.433 1278.42 106.352 1278.42 107.415V127.86C1278.42 128.923 1278.04 129.842 1277.26 130.615C1276.49 131.388 1275.57 131.775 1274.51 131.775H1218.1V140.91H1266.53C1267.6 140.91 1268.52 141.297 1269.29 142.07C1270.06 142.843 1270.45 143.762 1270.45 144.825V163.675C1270.45 164.738 1270.06 165.657 1269.29 166.43C1268.52 167.203 1267.6 167.59 1266.53 167.59H1218.1V176.725H1275.96ZM1409.74 200.505C1409.93 200.892 1410.03 201.327 1410.03 201.81C1410.03 202.68 1409.69 203.453 1409.01 204.13C1408.43 204.71 1407.71 205 1406.84 205H1373.92C1372.57 205 1371.31 204.662 1370.15 203.985C1369.09 203.308 1368.32 202.438 1367.83 201.375L1355.07 172.665H1342.89V201.085C1342.89 202.148 1342.51 203.067 1341.73 203.84C1340.96 204.613 1340.04 205 1338.98 205H1307.66C1306.59 205 1305.68 204.613 1304.9 203.84C1304.13 203.067 1303.74 202.148 1303.74 201.085V107.415C1303.74 106.352 1304.13 105.433 1304.9 104.66C1305.68 103.887 1306.59 103.5 1307.66 103.5H1364.06C1372.76 103.5 1380.35 104.902 1386.83 107.705C1393.4 110.508 1398.43 114.568 1401.91 119.885C1405.39 125.202 1407.13 131.437 1407.13 138.59C1407.13 151.737 1402.05 161.258 1391.9 167.155L1409.74 200.505ZM1361.02 145.84C1363.14 145.84 1364.79 145.163 1365.95 143.81C1367.11 142.36 1367.69 140.572 1367.69 138.445C1367.69 136.318 1367.11 134.482 1365.95 132.935C1364.88 131.292 1363.24 130.47 1361.02 130.47H1342.89V145.84H1361.02Z" fill="#3F3838"/>
</svg>
