<svg width="210" height="223" viewBox="0 0 210 223" fill="none" xmlns="http://www.w3.org/2000/svg">
<path d="M96.7936 13.6549C104.638 5.32857 117.35 5.32857 125.174 13.6549L137.797 27.0767L109.451 57.1926L96.7936 43.7743C88.9621 35.4662 88.9621 21.9634 96.7936 13.6549Z" fill="#804431"/>
<path d="M104.691 52.1477L133.051 22.0318C150.255 15.1755 170.336 18.9843 184.113 33.6226L115.613 106.364C101.829 91.7328 98.2417 70.4128 104.691 52.1477Z" fill="#804431"/>
<path d="M59.8553 12.8924C60.2864 11.635 61.1699 10.611 62.3122 10.0448C63.4545 9.47991 64.7604 9.4185 65.9449 9.87669L79.7775 15.223C82.2429 16.176 83.5144 19.0711 82.6174 21.6892L53.6107 106.318L85.2982 198.769C85.8232 200.301 85.6189 202.007 84.7502 203.351C83.8811 204.695 82.4545 205.51 80.9201 205.539L65.3588 205.841C65.3293 205.841 65.3006 205.842 65.2715 205.842C63.2777 205.842 61.4915 204.518 60.8073 202.522L30.2363 113.33L30.2359 99.3097L59.8553 12.8924ZM68.5765 195.686L74.0927 195.579L45.6553 112.612L40.772 114.565L68.5765 195.686ZM45.6533 100.03L72.0624 22.9792L67.1594 21.0842L40.7708 98.0741L45.6533 100.03Z" fill="#FFB14D"/>
<path d="M55.2444 106.32C55.2444 114.934 48.6807 121.905 40.5682 121.905C32.4557 121.905 25.8854 114.935 25.8854 106.32C25.8854 97.7224 32.4557 90.7314 40.5682 90.7314C48.6807 90.7314 55.2444 97.7228 55.2444 106.32Z" fill="#F97946"/>
<path d="M140.65 190.707L159.811 217.954H42.315V190.707H140.65Z" fill="#804431"/>
<path d="M21.1342 106.32C21.1342 97.1696 26.775 89.396 34.5569 86.7013L59.8554 12.8926C60.2864 11.6352 61.1699 10.6112 62.3122 10.045C63.4545 9.48011 64.7604 9.4187 65.9449 9.8769L68.3042 10.7889C71.2618 4.3607 77.4941 0 84.5443 0C89.7488 0 94.5644 2.36197 97.9257 6.30715C101.814 3.74265 106.302 2.36502 110.991 2.36502C117.624 2.36502 123.855 5.10853 128.536 10.0899L134.32 16.2402C153.042 10.0733 173.608 15.3252 187.475 30.0562C189.329 32.0262 189.329 35.2201 187.474 37.1905L118.973 109.932C118.045 110.917 116.829 111.41 115.614 111.41C114.398 111.41 113.183 110.917 112.255 109.932C98.385 95.2105 93.4365 73.3748 99.2381 53.4956L93.4357 47.3444C88.7496 42.3726 86.1693 35.7571 86.1693 28.7152C86.1693 23.04 87.8485 17.6423 90.9526 13.1579C89.3558 11.241 87.0442 10.0907 84.5439 10.0907C81.551 10.0907 78.8735 11.7497 77.3399 14.282L79.7766 15.2241C82.2421 16.1771 83.5136 19.0722 82.6166 21.6902L57.2369 95.7367C58.9866 98.8334 59.9952 102.453 59.9952 106.32C59.9952 110.187 58.9866 113.806 57.2373 116.902L80.8049 185.661H104.65V179.356C104.65 176.569 106.777 174.31 109.401 174.31C112.025 174.31 114.152 176.569 114.152 179.356V185.661H140.65C142.149 185.661 143.56 186.411 144.456 187.687L162.193 212.909H164.49C167.114 212.909 169.242 215.168 169.242 217.954C169.242 220.74 167.114 223 164.49 223H159.827C159.824 223 159.819 223 159.815 223C159.812 223 159.81 223 159.807 223H37.6356C35.0114 223 32.8843 220.74 32.8843 217.954C32.8843 215.194 34.9728 212.955 37.5634 212.913V190.706C37.5634 187.92 39.6904 185.661 42.3146 185.661H55.0286L34.5573 125.935C26.7754 123.241 21.1342 115.469 21.1342 106.32ZM100.15 40.204L104.689 45.0155L112.595 36.6203C114.45 34.6508 117.459 34.6508 119.314 36.6203C121.17 38.5903 121.17 41.7851 119.314 43.7559L108.808 54.9133C103.831 70.0381 106.564 86.757 115.801 99.0316L177.208 33.8202C165.647 24.0104 149.9 21.1101 135.657 26.4007L130.445 31.9347C129.518 32.9195 128.301 33.4125 127.086 33.4125C125.87 33.4125 124.653 32.9195 123.726 31.9347C121.871 29.9648 121.871 26.77 123.726 24.7992L126.335 22.0287L121.811 17.218C118.925 14.1466 115.082 12.4553 110.992 12.4553C107.006 12.4553 103.254 14.0647 100.385 16.9889C100.232 17.1745 100.07 17.3518 99.8919 17.5138C97.1701 20.5447 95.6714 24.5043 95.6714 28.7147C95.6714 33.0589 97.2624 37.14 100.15 40.204ZM40.5682 116.86C46.0409 116.86 50.4931 112.132 50.4931 106.32C50.4931 100.507 46.0409 95.7776 40.5682 95.7776C35.0913 95.7776 30.6362 100.507 30.6362 106.32C30.6366 112.132 35.0918 116.86 40.5682 116.86ZM69.8086 22.1084C69.7975 22.1044 69.7869 22.0996 69.7758 22.0957L67.1594 21.0848L44.8424 86.196C46.5696 86.6098 48.2114 87.2644 49.7319 88.132L72.0628 22.9795L69.8086 22.1084ZM47.0655 212.909H150.334L138.268 195.751H61.8458C61.8348 195.751 61.8245 195.753 61.8134 195.753C61.8011 195.753 61.7892 195.751 61.7773 195.751H47.065L47.0655 212.909ZM70.6933 185.661L49.7319 124.505C48.2114 125.372 46.57 126.027 44.8424 126.441L65.1402 185.661L70.6933 185.661Z" fill="#262525"/>
</svg>
