<svg width="12" height="80" viewBox="0 0 12 80" fill="none" xmlns="http://www.w3.org/2000/svg">
<path d="M0.0366211 20.5043L5.51943 0.0732422L11.0022 20.5043V27.3147H0.0366211L0.0366211 20.5043Z" fill="#FFE6A1"/>
<path d="M3.69186 27.3147H0.26508L0.0366211 26.8607L0.0366211 20.5043L5.51943 0.0732422L3.69186 20.5043L3.69186 27.3147Z" fill="#FFD796"/>
<path d="M0.0368652 64.0906L0.0368652 20.5044C0.0368652 22.0089 0.855156 23.2285 1.86443 23.2285C2.87371 23.2285 3.692 22.0089 3.692 20.5044L3.692 64.0906H0.0368652Z" fill="#EDB063"/>
<path d="M3.69189 79.0728L3.69189 20.5039C3.69189 22.0085 4.51019 23.228 5.51946 23.228C6.52874 23.228 7.34703 22.0085 7.34703 20.5039L7.34703 79.0728H3.69189Z" fill="#FBBF73"/>
<path d="M7.34717 64.0906L7.34717 20.5044C7.34717 22.0089 8.16546 23.2285 9.17474 23.2285C10.184 23.2285 11.0023 22.0089 11.0023 20.5044L11.0023 64.0906H7.34717Z" fill="#FDC988"/>
<path d="M2.96094 9.60771L5.51953 0.0732422L8.07813 9.60771H2.96094Z" fill="#394A55"/>
<path d="M2.96094 9.60771L5.51953 0.0732422L4.66667 9.60771H2.96094Z" fill="#394147"/>
<path d="M3.69176 64.0903H0.0366211L0.0366211 68.1766H3.69176L3.69176 64.0903Z" fill="#394147"/>
<path d="M11.0023 64.0903H3.69189L3.69189 68.1766H11.0023V64.0903Z" fill="#8CD2FF"/>
<path d="M8.26106 79.073H2.77825C1.76887 79.073 0.950684 77.8535 0.950684 76.3489L0.950684 69.5386H10.0886V76.3489C10.0886 77.8535 9.27034 79.073 8.26106 79.073Z" fill="#FFE6A1"/>
<path d="M4.60582 76.3489V69.5386H0.950684L0.950684 76.3489C0.950684 77.8533 1.76897 79.073 2.77825 79.073H6.43339C5.42401 79.073 4.60582 77.8533 4.60582 76.3489Z" fill="#FFD796"/>
<path d="M3.69176 68.1768H0.0366211L0.0366211 69.5389C0.0366211 70.2911 0.445819 70.901 0.950458 70.901H3.69186L3.69186 68.1768H3.69176Z" fill="#959CB3"/>
<path d="M3.69214 68.1763H11.0025V69.5384C11.0025 70.2906 10.5933 70.9005 10.0887 70.9005H3.69214L3.69214 68.1763V68.1763Z" fill="#AFB9D2"/>
</svg>
