<svg width="74" height="65" viewBox="0 0 74 65" fill="none" xmlns="http://www.w3.org/2000/svg">
<path d="M72.498 3.18555V7.1424H72.0607L70.0261 5.35676L72.498 3.18555Z" fill="#F97946"/>
<path d="M72.4978 7.14279V62.7469L63.3231 54.6895V22.6403L25.7748 55.6219H62.2616L71.4346 63.6808H3.62671L6.23541 61.3893L8.26996 63.175L9.33147 62.2426L7.29692 60.4555L9.92565 58.1479L11.9585 59.935L13.0217 59.0012L10.9872 57.2141L13.6159 54.9065L15.6488 56.6936L16.7119 55.7597L14.6774 53.9741L17.3045 51.6651L19.339 53.4522L20.4022 52.5198L18.3676 50.7327L20.9947 48.4237L23.0292 50.2108L24.0907 49.2784L22.0579 47.4913L24.6849 45.1837L26.7195 46.9693L27.781 46.0369L25.7464 44.2498L28.3752 41.9423L30.408 43.7294L31.4712 42.7955L29.4367 41.0084L32.0654 38.7009L34.0983 40.488L35.1615 39.5541L33.1269 37.7684L35.754 35.4594L37.7885 37.2465L38.85 36.3141L36.8171 34.527L39.4442 32.2195L41.4788 34.0051L42.5403 33.0727L40.5074 31.2856L43.1344 28.978L45.169 30.7637L46.2305 29.8313L44.1959 28.0442L46.8247 25.7366L48.8576 27.5237L49.9207 26.5899L47.8862 24.8042L50.5149 22.4952L52.5478 24.2823L53.611 23.3484L51.5764 21.5628L54.2035 19.2538L56.238 21.0409L57.2995 20.1085L55.2667 18.3214L57.8937 16.0138L59.9283 17.7995L60.9898 16.8671L58.9569 15.08L61.5839 12.7724L63.6185 14.558L64.68 13.6256L62.6455 11.8385L65.2742 9.53097L67.3071 11.3181L68.3702 10.3842L66.3357 8.59857L68.9644 6.28955L70.9973 8.07666L72.0605 7.14279H72.4978Z" fill="#F97946"/>
<path d="M74 0V65H0L74 0ZM72.4979 62.7467V7.14257V3.18571L70.026 5.35693L72.0606 7.14257L70.9974 8.07644L68.9645 6.28933L66.3358 8.59835L68.3703 10.384L67.3072 11.3179L65.2743 9.53075L62.6456 11.8383L64.6801 13.6254L63.6186 14.5578L61.5841 12.7722L58.957 15.0797L60.9899 16.8668L59.9284 17.7992L57.8938 16.0136L55.2668 18.3212L57.2996 20.1083L56.2381 21.0407L54.2036 19.2536L51.5765 21.5626L53.6111 23.3482L52.5479 24.2821L50.515 22.495L47.8863 24.804L49.9208 26.5896L48.8577 27.5235L46.8248 25.7364L44.196 28.044L46.2306 29.8311L45.1691 30.7635L43.1345 28.9778L40.5075 31.2854L42.5404 33.0725L41.4789 34.0049L39.4443 32.2193L36.8172 34.5268L38.8501 36.3139L37.7886 37.2463L35.7541 35.4592L33.127 37.7682L35.1616 39.5539L34.0984 40.4877L32.0655 38.7006L29.4368 41.0082L31.4713 42.7953L30.4081 43.7292L28.3753 41.9421L25.7465 44.2496L27.7811 46.0367L26.7196 46.9691L24.685 45.1835L22.058 47.491L24.0908 49.2781L23.0293 50.2105L20.9948 48.4234L18.3677 50.7325L20.4023 52.5196L19.3391 53.452L17.3046 51.6649L14.6775 53.9739L16.712 55.7595L15.6489 56.6934L13.616 54.9063L10.9873 57.2138L13.0218 59.0009L11.9586 59.9348L9.92575 58.1477L7.29702 60.4553L9.33157 62.2424L8.27007 63.1748L6.23551 61.3891L3.62681 63.6806H71.4347L62.2617 55.6217H25.7749L63.3232 22.6401V54.6893L72.4979 62.7467ZM61.8211 54.3023V25.8258L29.4017 54.3023H61.8211Z" fill="black"/>
</svg>
