<svg width="417" height="372" viewBox="0 0 417 372" fill="none" xmlns="http://www.w3.org/2000/svg">
<path d="M228.632 11.6781L275.665 100.575C278.935 106.758 285.259 111.042 292.575 112.032L397.747 126.289C416.17 128.788 423.52 149.9 410.194 162.015L334.092 231.211C328.803 236.023 326.385 242.96 327.638 249.751L345.6 347.46C348.749 364.573 329.491 377.62 313.016 369.547L218.951 323.419C212.41 320.214 204.59 320.214 198.049 323.419L103.984 369.547C87.5094 377.628 68.2511 364.573 71.4 347.46L89.3622 249.751C90.6148 242.96 88.1966 236.023 82.908 231.211L6.80556 162.015C-6.52041 149.892 0.829746 128.78 19.253 126.289L124.425 112.032C131.741 111.042 138.065 106.758 141.335 100.575L188.368 11.6781C196.596 -3.8927 220.395 -3.8927 228.632 11.6781Z" fill="#FFBA35"/>
</svg>
