<svg width="1752" height="331" viewBox="0 0 1752 331" fill="none" xmlns="http://www.w3.org/2000/svg">
<path d="M1621.3 180.619L1714.52 269.463H1426.52V61.5366H1716.38L1620.92 159.28L1610.31 170.143L1621.3 180.619Z" fill="white" stroke="#31805A" stroke-width="30"/>
<path d="M1433.89 71.4434H1695.76L1598.69 169.432L1692.73 260.212H1433.89V71.4434Z" fill="#9CAC70"/>
<path d="M130.697 150.381L37.4802 61.5367L325.482 61.5367V269.463L35.6176 269.463L131.08 171.72L141.689 160.857L130.697 150.381Z" fill="white" stroke="#31805A" stroke-width="30"/>
<path d="M318.105 259.557L56.2429 259.557L153.307 161.568L59.2667 70.7883L318.105 70.7883V259.557Z" fill="#9CAC70"/>
<rect x="246.625" y="15" width="1241.21" height="301" rx="15" fill="white" stroke="#31805A" stroke-width="30"/>
<rect x="253.396" y="23.5962" width="1227.07" height="283.152" fill="#CFE78C"/>
<path d="M565.42 103.5C566.29 103.5 567.015 103.838 567.595 104.515C568.272 105.095 568.61 105.82 568.61 106.69L568.465 107.705L535.115 200.215C534.632 201.568 533.858 202.728 532.795 203.695C531.732 204.565 530.33 205 528.59 205H494.805C493.065 205 491.663 204.565 490.6 203.695C489.537 202.728 488.812 201.713 488.425 200.65L454.785 107.705L454.64 106.69C454.64 105.82 454.93 105.095 455.51 104.515C456.187 103.838 456.96 103.5 457.83 103.5H488.425C490.165 103.5 491.567 104.032 492.63 105.095C493.79 106.062 494.563 107.125 494.95 108.285L511.625 163.82L528.3 108.285C528.687 107.028 529.412 105.917 530.475 104.95C531.538 103.983 532.988 103.5 534.825 103.5H565.42ZM654.538 175.275H680.783C681.847 175.275 682.765 175.662 683.538 176.435C684.312 177.208 684.698 178.127 684.698 179.19V201.085C684.698 202.148 684.312 203.067 683.538 203.84C682.765 204.613 681.847 205 680.783 205H588.853C587.79 205 586.872 204.613 586.098 203.84C585.325 203.067 584.938 202.148 584.938 201.085V179.19C584.938 178.127 585.325 177.208 586.098 176.435C586.872 175.662 587.79 175.275 588.853 175.275H615.388V133.225H588.853C587.79 133.225 586.872 132.838 586.098 132.065C585.325 131.292 584.938 130.373 584.938 129.31V107.415C584.938 106.352 585.325 105.433 586.098 104.66C586.872 103.887 587.79 103.5 588.853 103.5H680.783C681.847 103.5 682.765 103.887 683.538 104.66C684.312 105.433 684.698 106.352 684.698 107.415V129.31C684.698 130.373 684.312 131.292 683.538 132.065C682.765 132.838 681.847 133.225 680.783 133.225H654.538V175.275ZM744.672 165.85C744.672 169.813 745.977 172.858 748.587 174.985C751.293 177.112 754.918 178.175 759.462 178.175C763.522 178.175 766.518 177.498 768.452 176.145C770.385 174.792 772.028 172.762 773.382 170.055C774.638 167.542 776.33 166.285 778.457 166.285H809.777C810.647 166.285 811.372 166.623 811.952 167.3C812.628 167.88 812.967 168.605 812.967 169.475C812.967 175.372 810.985 181.172 807.022 186.875C803.058 192.482 797.017 197.17 788.897 200.94C780.873 204.613 771.062 206.45 759.462 206.45C749.118 206.45 739.887 204.903 731.767 201.81C723.743 198.62 717.363 193.787 712.627 187.31C707.89 180.737 705.522 172.568 705.522 162.805V145.695C705.522 135.932 707.89 127.812 712.627 121.335C717.363 114.762 723.743 109.928 731.767 106.835C739.887 103.645 749.118 102.05 759.462 102.05C771.062 102.05 780.873 103.935 788.897 107.705C797.017 111.378 803.058 116.067 807.022 121.77C810.985 127.377 812.967 133.128 812.967 139.025C812.967 139.895 812.628 140.668 811.952 141.345C811.372 141.925 810.647 142.215 809.777 142.215H778.457C776.33 142.215 774.638 140.958 773.382 138.445C772.028 135.738 770.385 133.708 768.452 132.355C766.518 131.002 763.522 130.325 759.462 130.325C754.918 130.325 751.293 131.388 748.587 133.515C745.977 135.642 744.672 138.687 744.672 142.65V165.85ZM931.23 103.5C932.293 103.5 933.212 103.887 933.985 104.66C934.758 105.433 935.145 106.352 935.145 107.415V130.76C935.145 131.823 934.758 132.742 933.985 133.515C933.212 134.288 932.293 134.675 931.23 134.675H900.055V201.085C900.055 202.148 899.668 203.067 898.895 203.84C898.122 204.613 897.203 205 896.14 205H866.27C865.207 205 864.288 204.613 863.515 203.84C862.742 203.067 862.355 202.148 862.355 201.085V134.675H831.18C830.117 134.675 829.198 134.288 828.425 133.515C827.652 132.742 827.265 131.823 827.265 130.76V107.415C827.265 106.352 827.652 105.433 828.425 104.66C829.198 103.887 830.117 103.5 831.18 103.5H931.23ZM1058.34 163.095C1058.34 177.885 1053.41 188.808 1043.55 195.865C1033.79 202.922 1020.74 206.45 1004.4 206.45C988.062 206.45 974.963 202.922 965.103 195.865C955.34 188.808 950.458 177.788 950.458 162.805V145.695C950.458 135.835 952.778 127.667 957.418 121.19C962.155 114.617 968.583 109.783 976.703 106.69C984.823 103.597 994.055 102.05 1004.4 102.05C1014.74 102.05 1023.93 103.597 1031.95 106.69C1040.07 109.783 1046.5 114.568 1051.23 121.045C1055.97 127.522 1058.34 135.642 1058.34 145.405V163.095ZM989.608 165.85C989.608 169.813 990.913 172.858 993.523 174.985C996.23 177.112 999.855 178.175 1004.4 178.175C1008.94 178.175 1012.52 177.112 1015.13 174.985C1017.84 172.762 1019.19 169.668 1019.19 165.705V142.795C1019.19 138.832 1017.84 135.787 1015.13 133.66C1012.52 131.437 1008.94 130.325 1004.4 130.325C999.855 130.325 996.23 131.388 993.523 133.515C990.913 135.642 989.608 138.687 989.608 142.65V165.85ZM1185.16 200.505C1185.35 200.892 1185.45 201.327 1185.45 201.81C1185.45 202.68 1185.11 203.453 1184.43 204.13C1183.85 204.71 1183.13 205 1182.26 205H1149.34C1147.99 205 1146.73 204.662 1145.57 203.985C1144.51 203.308 1143.74 202.438 1143.25 201.375L1130.49 172.665H1118.31V201.085C1118.31 202.148 1117.93 203.067 1117.15 203.84C1116.38 204.613 1115.46 205 1114.4 205H1083.08C1082.01 205 1081.1 204.613 1080.32 203.84C1079.55 203.067 1079.16 202.148 1079.16 201.085V107.415C1079.16 106.352 1079.55 105.433 1080.32 104.66C1081.1 103.887 1082.01 103.5 1083.08 103.5H1139.48C1148.18 103.5 1155.77 104.902 1162.25 107.705C1168.82 110.508 1173.85 114.568 1177.33 119.885C1180.81 125.202 1182.55 131.437 1182.55 138.59C1182.55 151.737 1177.47 161.258 1167.32 167.155L1185.16 200.505ZM1136.44 145.84C1138.56 145.84 1140.21 145.163 1141.37 143.81C1142.53 142.36 1143.11 140.572 1143.11 138.445C1143.11 136.318 1142.53 134.482 1141.37 132.935C1140.3 131.292 1138.66 130.47 1136.44 130.47H1118.31V145.84H1136.44ZM1303.86 103.5C1304.73 103.5 1305.45 103.838 1306.03 104.515C1306.71 105.095 1307.05 105.772 1307.05 106.545C1307.05 107.125 1306.9 107.705 1306.61 108.285L1270.07 168.75V201.085C1270.07 202.148 1269.68 203.067 1268.91 203.84C1268.14 204.613 1267.22 205 1266.16 205H1235.27C1234.21 205 1233.29 204.613 1232.52 203.84C1231.74 203.067 1231.36 202.148 1231.36 201.085V168.75L1194.96 108.285C1194.67 107.705 1194.53 107.173 1194.53 106.69C1194.53 105.82 1194.82 105.095 1195.4 104.515C1196.07 103.838 1196.85 103.5 1197.72 103.5H1228.31C1231.02 103.5 1233 104.612 1234.26 106.835L1250.64 135.545L1267.46 107.125C1268.91 104.708 1270.94 103.5 1273.55 103.5H1303.86Z" fill="#3F3838"/>
</svg>
